# Created with Anim8or 1.00
# Object "simple2":

mtllib tako_mid.mtl

# Shape "mesh01":
g mesh01
# No. points 25:
v 24.9461 33.4878 0
v -45.2579 23.0448 0
v -42.3549 34.8128 0
v -27.0369 32.4098 0
v -0.08923 39.5258 0
v -37.2749 14.0388 0
v -38.0939 -38.9722 0
v 41.8321 -38.2552 0
v 36.2031 13.9368 0
v 46.6421 24.8868 0
v -49.5329 -33.7572 0
v 49.2831 -33.5012 0
v 40.3991 35.8408 0
v -0.22220 3.9604 0
v -43.42 -9.92195 0
v 42.759 -9.84018 0
v -0.14271 -38.6317 0
v -17.7603 -38.7898 0
v 20.157 -38.4496 0
v -40.1936 2.65834 0
v 39.1396 3.28681 0
v -12.9806 36.1216 0
v 11.9965 36.611 0
v -45.9893 -19.9399 0
v 45.4745 -19.6887 0

# No. normals 41:
vn 0 0 -1
vn 0 0 -1
vn 0 0 -1
vn 0 0 -1
vn 0 0 -1
vn 0 0 -1
vn 0 0 -1
vn 0 0 -1
vn 0 0 -1
vn 0 0 -1
vn 0 0 -1
vn 0 0 -1
vn 0 0 -1
vn 0 0 -1
vn 0 0 -1
vn 0 0 -1
vn 0 0 -1
vn 0 0 -1
vn 0 0 -1
vn 0 0 -1
vn 0 0 -1
vn 0 0 -1
vn 0 0 -1
vn 0 0 -1
vn 0 0 -1
vn 0 0 -1
vn 0 0 -1
vn 0 0 -1
vn 0 0 -1
vn 0 0 -1
vn 0 0 -1
vn 0 0 -1
vn 0 0 -1
vn 0 0 -1
vn 0 0 -1
vn 0 0 -1
vn 0 0 -1
vn 0 0 -1
vn 0 0 -1
vn 0 0 -1
vn 0 0 -1

# No. texture coordinates 25:
vt 0.08510 0.92870
vt 0.49774 0.55298
vt 0.23512 0.89945
vt 0.49904 0.98609
vt 0.74424 0.91256
vt 0.89558 0.94123
vt 0.95672 0.80782
vt 0.85449 0.67447
vt 0.98259 0.09678
vt 0.90962 0.03887
vt 0.12683 0.03015
vt 0.01479 0.09366
vt 0.13485 0.67572
vt 0.05667 0.78539
vt 0.07466 0.38393
vt 0.91870 0.38492
vt 0.49852 0.03429
vt 0.32598 0.03237
vt 0.69734 0.03651
vt 0.10626 0.53713
vt 0.88325 0.54478
vt 0.37278 0.94464
vt 0.61741 0.95059
vt 0.04950 0.26193
vt 0.94529 0.26499

# No. faces 24:

usemtl material01

f 4/3/20 14/2/30 3/1/19
f 13/6/29 14/2/30 1/5/17
f 14/2/30 13/6/29 10/7/26
f 14/2/30 10/7/26 9/8/25
f 14/2/30 12/9/28 8/10/24
f 11/12/27 14/2/30 7/11/23
f 14/2/30 6/13/22 2/14/18
f 3/1/19 14/2/30 2/14/18
f 14/2/30 17/17/33 18/18/34
f 18/18/34 7/11/23 14/2/30
f 14/2/30 8/10/24 19/19/35
f 19/19/35 17/17/33 14/2/30
f 14/2/30 15/15/31 20/20/36
f 20/20/36 6/13/22 14/2/30
f 14/2/30 9/8/25 21/21/37
f 21/21/37 16/16/32 14/2/30
f 14/2/30 4/3/20 22/22/38
f 22/22/38 5/4/21 14/2/30
f 14/2/30 5/4/21 23/23/39
f 23/23/39 1/5/17 14/2/30
f 14/2/30 16/16/32 25/25/41
f 25/25/41 12/9/28 14/2/30
f 14/2/30 11/12/27 24/24/40
f 24/24/40 15/15/31 14/2/30

# End of Object "simple2"
