# Created with Anim8or 1.00
# Object "simple":

mtllib tako_simple.mtl

# Shape "mesh01":
g mesh01
# No. points 14:
v 24.9463 33.4875 0
v -45.2574 23.0446 0.00002
v -42.3547 34.8125 0.00001
v -27.0366 32.4102 0.00001
v -0.08923 39.5254 0.00001
v -37.2751 14.0389 0.00002
v -38.0938 -38.9721 0.00002
v 41.832 -38.2557 0.00001
v 36.2034 13.9366 0.00001
v 46.6418 24.8867 0.00001
v -49.5331 -33.7567 0.00002
v 49.2833 -33.5008 0.00001
v 40.3992 35.8413 0
v -0.22220 3.96037 0

# No. normals 53:
vn 0 0 -1
vn 0 0 -1
vn 0 0 -1
vn 0 0 -1
vn 0 0 -1
vn 0 0 -1
vn 0 0 -1
vn 0 0 -1
vn 0 0 -1
vn 0 0 -1
vn 0 0 -1
vn 0 0 -1
vn 0 0 -1
vn 0 0 -1
vn 0 0 -1
vn 0 0 -1
vn 0 0 -1
vn 0 0 -1
vn 0 0 -1
vn 0 0 -1
vn 0 0 -1
vn 0 0 -1
vn 0 0 -1
vn 0 0 -1
vn 0 0 -1
vn 0 0 -1
vn 0 0 -1
vn 0 0 -1
vn 0 0 -1
vn 0 0 -1
vn 0 0 -1
vn 0 0 -1
vn 0 0 -1
vn 0 0 -1
vn 0 0 -1
vn 0 0 -1
vn 0 0 -1
vn 0 0 -1
vn 0 0 -1
vn 0 0 -1
vn 0 0 -1
vn 0 0 -1
vn 0 0 -1
vn 0 0 -1
vn 0 0 -1
vn 0 0 -1
vn 0 0 -1
vn 0 0 -1
vn 0 0 -1
vn 0 0 -1
vn 0 0 -1
vn 0 0 -1
vn 0 0 -1

# No. texture coordinates 14:
vt 0.08510 0.92870
vt 0.49774 0.55298
vt 0.23512 0.89945
vt 0.49904 0.98609
vt 0.74424 0.91256
vt 0.89558 0.94123
vt 0.95672 0.80782
vt 0.85449 0.67447
vt 0.98259 0.09678
vt 0.90962 0.03887
vt 0.12683 0.03015
vt 0.01479 0.09366
vt 0.13485 0.67572
vt 0.05667 0.78539

# No. faces 13:

usemtl material01

f 4/3/17 14/2/27 3/1/16
f 5/4/18 14/2/27 4/3/17
f 14/2/27 5/4/18 1/5/14
f 13/6/26 14/2/27 1/5/14
f 14/2/27 13/6/26 10/7/23
f 14/2/27 10/7/23 9/8/22
f 12/9/25 14/2/27 9/8/22
f 14/2/27 12/9/25 8/10/21
f 14/2/27 8/10/21 7/11/20
f 11/12/24 14/2/27 7/11/20
f 14/2/27 11/12/24 6/13/19
f 14/2/27 6/13/19 2/14/15
f 3/1/16 14/2/27 2/14/15

# End of Object "simple"
