# Created with Anim8or 1.00
# Object "object01":

mtllib tako.mtl

# Shape "mesh01":
g mesh01
# No. points 46:
v 7.6672 35.373 -0.00008
v 19.564 32.517 -0.00011
v 27.495 27.81 -0.00012
v -24.057 25.695 0
v -14.806 32.781 0
v -2.3799 35.637 -0.00005
v 40.184 33.097 -0.00011
v 45.207 29.925 -0.00011
v 45.207 23.581 -0.00008
v 41.506 16.707 -0.00005
v 34.897 13.799 0
v 41.77 0.05213 0
v 44.943 -25.062 0.00005
v 50.495 -41.453 0.00009
v 48.643 -47.004 0.00011
v 41.77 -47.533 0.00015
v 34.897 -36.958 0.00016
v 30.403 -36.166 0.00018
v 25.38 -43.304 0.00024
v 19.299 -47.533 0.00028
v 12.955 -45.947 0.00031
v 6.3456 -38.281 0.00031
v 2.1158 -37.752 0.00035
v -3.1715 -38.81 0.00037
v -7.4013 -45.683 0.00043
v -11.631 -47.798 0.00046
v -17.976 -45.418 0.00049
v -24.32 -38.281 0.00050
v -30.401 -37.487 0.00054
v -38.068 -47.269 0.00061
v -45.47 -45.683 0.00065
v -45.998 -39.339 0.00065
v -40.447 -23.741 0.00060
v -38.068 1.6383 0.00059
v -33.573 13.799 0.00057
v -42.826 21.466 0.00062
v -42.297 28.074 0.00062
v -37.803 32.041 0.00063
v -38.86 17.236 0.00063
v -28.55 19.351 0.00062
v 30.932 21.73 -0.00006
v 1.6555 1.6751 0.00005
v 41.77 -32.729 0.00008
v 17.449 -35.373 0.00025
v -13.218 -35.373 0.00045
v -35.952 -30.879 0.00060

# No. normals 97:
vn 0 0 -1
vn -0.00007 -0.00005 -1
vn 0 0 -1
vn 0 0 -1
vn 0 0.00001 -1
vn 0 -0.00001 -1
vn 0 0 -1
vn 0 0 -1
vn 0 0 -1
vn 0 -0.00001 -1
vn 0 0 -1
vn 0 0 -1
vn -0.00001 0 -1
vn -0.00001 0 -1
vn -0.00001 0 -1
vn 0 0 -1
vn -0.00001 0 -1
vn 0 0 -1
vn -0.00001 0 -1
vn -0.00001 0 -1
vn -0.00001 0 -1
vn 0 0 -1
vn -0.00001 0 -1
vn -0.00001 0 -1
vn 0 0 -1
vn 0 0 -1
vn 0 0 -1
vn -0.00005 -0.00006 -1
vn -0.00001 0.00002 -1
vn -0.00001 0 -1
vn -0.00001 0 -1
vn -0.00001 -0.00001 -1
vn -0.00001 0 -1
vn -0.00001 -0.00001 -1
vn 0 -0.00001 -1
vn -0.00001 -0.00001 -1
vn 0 -0.00001 -1
vn -0.00001 -0.00001 -1
vn 0 -0.00001 -1
vn -0.00001 -0.00001 -1
vn -0.00001 -0.00001 -1
vn 0 0 -1
vn -0.00001 -0.00001 -1
vn 0 0 -1
vn 0 0 -1
vn 0 -0.00001 -1
vn 0 -0.00001 -1
vn 0 0 -1
vn 0 0 -1
vn 0 0 -1
vn 0 0 -1
vn 0 0 -1
vn 0 0 -1
vn 0 -0.00001 -1
vn -0.00004 -0.00004 -1
vn 0 0 -1
vn 0 0 -1
vn 0 -0.00001 -1
vn 0 0 -1
vn 0 0 -1
vn 0 -0.00001 -1
vn 0 -0.00001 -1
vn 0 0 -1
vn 0 0 -1
vn 0 0 -1
vn 0 0 -1
vn -0.00001 0 -1
vn -0.00001 -0.00001 -1
vn -0.00001 -0.00001 -1
vn -0.00001 0 -1
vn 0 0 -1
vn 0 0 -1
vn -0.00001 -0.00001 -1
vn -0.00001 -0.00001 -1
vn -0.00001 -0.00001 -1
vn -0.00001 0 -1
vn -0.00001 0 -1
vn 0 0 -1
vn 0 -0.00001 -1
vn -0.00001 0 -1
vn -0.00001 0 -1
vn -0.00001 0 -1
vn 0 0 -1
vn -0.00001 0 -1
vn -0.00001 0 -1
vn -0.00001 0.00001 -1
vn 0 0 -1
vn 0 0 -1
vn -0.00003 -0.00002 -1
vn 0 0 -1
vn -0.00002 -0.00001 -1
vn 0 -0.00001 -1
vn -0.00001 -0.00001 -1
vn 0 0 -1
vn 0 0 -1
vn -0.00001 0 -1
vn -0.00001 0 -1

# No. texture coordinates 46:
vt 0.06954 0.69547
vt 0.20238 0.61990
vt 0.11297 0.72983
vt 0.24580 0.67486
vt 0.06443 0.63822
vt 0.10275 0.60158
vt 0.15384 0.57181
vt 0.74397 0.69318
vt 0.77718 0.64051
vt 0.86659 0.73898
vt 0.91512 0.71150
vt 0.91512 0.65655
vt 0.87936 0.59700
vt 0.81549 0.57181
vt 0.91257 0.23516
vt 0.88191 0.16875
vt 0.96622 0.09317
vt 0.94833 0.04509
vt 0.88191 0.04050
vt 0.81549 0.13211
vt 0.77207 0.13897
vt 0.64689 0.14584
vt 0.72353 0.07714
vt 0.66477 0.04050
vt 0.60346 0.05424
vt 0.53959 0.12065
vt 0.44762 0.11607
vt 0.35054 0.14584
vt 0.40675 0.05653
vt 0.36588 0.03821
vt 0.30456 0.05883
vt 0.24326 0.12065
vt 0.18449 0.12753
vt 0.13085 0.18477
vt 0.11041 0.04279
vt 0.03888 0.05653
vt 0.03378 0.11149
vt 0.08742 0.24661
vt 0.49427 0.46678
vt 0.33520 0.73624
vt 0.11041 0.46646
vt 0.49872 0.12523
vt 0.88191 0.45272
vt 0.66733 0.73396
vt 0.55236 0.75870
vt 0.45527 0.76098

# No. faces 51:

usemtl material01

f 38/3/89 40/2/91 37/1/88
f 40/2/91 38/3/89 4/4/55
f 37/1/88 40/2/91 36/5/87
f 40/2/91 39/6/90 36/5/87
f 39/6/90 40/2/91 35/7/86
f 7/10/58 41/9/92 3/8/54
f 8/11/59 41/9/92 7/10/58
f 9/12/60 41/9/92 8/11/59
f 10/13/61 41/9/92 9/12/60
f 11/14/62 41/9/92 10/13/61
f 14/17/65 43/16/94 13/15/64
f 15/18/66 43/16/94 14/17/65
f 16/19/67 43/16/94 15/18/66
f 17/20/68 43/16/94 16/19/67
f 19/23/70 44/22/95 18/21/69
f 20/24/71 44/22/95 19/23/70
f 21/25/72 44/22/95 20/24/71
f 22/26/73 44/22/95 21/25/72
f 25/29/76 45/28/96 24/27/75
f 26/30/77 45/28/96 25/29/76
f 27/31/78 45/28/96 26/30/77
f 28/32/79 45/28/96 27/31/78
f 30/35/81 46/34/97 29/33/80
f 31/36/82 46/34/97 30/35/81
f 32/37/83 46/34/97 31/36/82
f 33/38/84 46/34/97 32/37/83
f 5/40/56 42/39/93 4/4/55
f 42/39/93 40/2/91 4/4/55
f 40/2/91 42/39/93 35/7/86
f 35/7/86 42/39/93 34/41/85
f 34/41/85 42/39/93 33/38/84
f 42/39/93 46/34/97 33/38/84
f 46/34/97 42/39/93 29/33/80
f 29/33/80 42/39/93 28/32/79
f 42/39/93 45/28/96 28/32/79
f 45/28/96 42/39/93 24/27/75
f 24/27/75 42/39/93 23/42/74
f 23/42/74 42/39/93 22/26/73
f 42/39/93 44/22/95 22/26/73
f 44/22/95 42/39/93 18/21/69
f 18/21/69 42/39/93 17/20/68
f 43/16/94 42/39/93 13/15/64
f 42/39/93 43/16/94 17/20/68
f 13/15/64 42/39/93 12/43/63
f 12/43/63 42/39/93 11/14/62
f 42/39/93 41/9/92 11/14/62
f 41/9/92 42/39/93 3/8/54
f 3/8/54 42/39/93 2/44/53
f 2/44/53 42/39/93 1/45/52
f 42/39/93 6/46/57 1/45/52
f 6/46/57 42/39/93 5/40/56

# End of Object "object01"
